<?xml version="1.0" encoding="UTF-8"?>
<!-- Generator: Adobe Illustrator 27.3.1, SVG Export Plug-In . SVG Version: 6.00 Build 0)  -->
<!DOCTYPE svg PUBLIC "-//W3C//DTD SVG 1.1//EN" "http://www.w3.org/Graphics/SVG/1.1/DTD/svg11.dtd">
<svg version="1.1" xmlns:x="http://ns.adobe.com/Extensibility/1.0/" xmlns:i="http://ns.adobe.com/AdobeIllustrator/10.0/" xmlns:graph="http://ns.adobe.com/Graphs/1.0/" xmlns="http://www.w3.org/2000/svg" xmlns:xlink="http://www.w3.org/1999/xlink" x="0px" y="0px" viewBox="0 0 200.8 75.8" style="enable-background:new 0 0 200.8 75.8;" xml:space="preserve">
<style type="text/css">
	.st0{fill:none;}
	.st1{fill:#000000;}
</style>
<metadata>
	<sfw xmlns="http://ns.adobe.com/SaveForWeb/1.0/">
		<slices/>
		<sliceSourceBounds bottomLeftOrigin="true" height="16383" width="16390" x="-8718.5" y="-8157.9"/>
	</sfw>
</metadata>
<g id="Freiraum">
</g>
<g id="Ebene_1">
	<rect x="0.1" y="0" class="st0" width="200.7" height="75.8"/>
	<g>
		<g>
			<path class="st1" d="M30,32.5c-0.4,0.3-1.2,0.6-1.8,0.6c-1,0-1-1-1-1.6c0-0.7,0.3-0.9,1.1-0.9H30V32.5z M32.4,28.4     c0-2.4-0.9-3.4-3.8-3.4c-1,0-2.3,0.2-3.2,0.4l0.3,1.8c0.8-0.2,1.8-0.3,2.6-0.3c1.5,0,1.8,0.3,1.8,1.3v0.5h-2.4     c-1.9,0-2.6,1.3-2.6,3.2c0,1.6,0.7,2.8,2.4,2.8c0.9,0,1.9-0.3,2.8-0.8l0.2,0.7h1.9V28.4z"/>
			<path class="st1" d="M39.9,31.9c-0.5,0.5-1.3,0.9-2.1,0.9c-0.9,0-1.2-0.4-1.2-1.2v-3.4c0-0.9,0.3-1.2,1.2-1.2     c0.7,0,1.5,0.1,2.1,0.3V31.9z M34.2,31.5c0,2.2,1,3.3,2.9,3.3c1.2,0,2.2-0.4,3-1l0.3,0.9h1.9V21.1l-2.4,0.3v3.9     c-0.7-0.2-1.7-0.3-2.5-0.3c-2.2,0-3.1,1.1-3.1,3.2V31.5z"/>
			<path class="st1" d="M75.3,28.7v2.5c0,1.1-0.5,1.6-1.7,1.6c-1.3,0-1.7-0.6-1.7-1.6v-2.5c0-1.1,0.5-1.6,1.7-1.6     C74.8,27,75.3,27.6,75.3,28.7 M77.6,31.1v-2.4c0-1.9-0.9-3.7-4.1-3.7c-3.2,0-4.1,1.8-4.1,3.7v2.4c0,1.9,0.9,3.7,4.1,3.7     C76.8,34.8,77.6,33,77.6,31.1"/>
			<path class="st1" d="M59.8,31.7c-0.1-1.9-0.4-2.3-3-2.8c-1.3-0.3-1.3-0.3-1.4-1.1c0-0.6,0.1-0.8,1.2-0.9c0.7,0,1.9,0,2.6,0.1     l0.1-1.9c-0.8-0.2-2-0.2-2.8-0.2c-2.7,0.1-3.5,1-3.4,2.9c0.1,1.8,0.4,2.4,2.7,2.8c1.5,0.3,1.7,0.6,1.7,1.2c0,0.7-0.1,0.9-1.1,1     c-1,0-2-0.1-2.8-0.3l-0.2,1.8c0.9,0.3,2.3,0.4,3.3,0.4C59.4,34.7,59.9,33.5,59.8,31.7"/>
			<path class="st1" d="M68.1,31.7c-0.1-1.9-0.4-2.3-3-2.8c-1.3-0.3-1.3-0.3-1.4-1.1c0-0.6,0.1-0.8,1.2-0.9c0.7,0,1.9,0,2.6,0.1     l0.1-1.9c-0.8-0.2-2-0.2-2.8-0.2c-2.7,0.1-3.5,1-3.4,2.9c0.1,1.8,0.4,2.4,2.7,2.8c1.5,0.3,1.7,0.6,1.7,1.2c0,0.7-0.1,0.9-1.1,1     c-1,0-2-0.1-2.8-0.3l-0.2,1.8c0.9,0.3,2.3,0.4,3.3,0.4C67.6,34.7,68.1,33.5,68.1,31.7"/>
			<path class="st1" d="M46.5,28.5c0-0.9,0.4-1.5,1.6-1.5c1.2,0,1.4,0.6,1.4,1.5v0.5h-3V28.5z M46.5,31.3v-0.5h5.2v-2     c0-2-0.7-3.8-3.7-3.8c-3,0-3.9,1.7-3.9,3.7v2.5c0,2.3,1,3.6,4,3.6c1.1,0,2.1-0.1,3.1-0.5l0.3-1.8c-1.2,0.3-2.2,0.5-3.1,0.4     C46.9,32.9,46.5,32.5,46.5,31.3"/>
		</g>
		<polygon class="st1" points="88.5,20.2 88.5,53.9 76.5,65.6 79.2,65.6 90.4,54.6 90.4,20.2   "/>
		<g>
			<path class="st1" d="M101.1,24.5v-2.6h2.3v2.6H101.1z M101.1,34.9v-9.2h2.3v9.2H101.1z"/>
			<path class="st1" d="M111.5,34.9v-6.4c0-0.5-0.2-0.7-0.7-0.7c-0.6,0-1.6,0.3-2.4,0.8v6.3h-2.3v-9.2h1.7l0.2,0.8     c1.1-0.6,2.6-1,3.7-1c1.5,0,2.1,1.1,2.1,2.7v6.6H111.5z"/>
			<path class="st1" d="M119.2,35.1c-1,0-2.3-0.2-3.2-0.5l0.3-1.8c0.8,0.2,1.8,0.4,2.7,0.4c1,0,1.2-0.2,1.2-0.9     c0-0.6-0.1-0.8-1.6-1.2c-2.2-0.5-2.5-1.1-2.5-2.9c0-1.8,0.8-2.7,3.4-2.7c0.8,0,2,0.1,2.7,0.3l-0.2,1.8c-0.7-0.1-1.8-0.3-2.5-0.3     c-1,0-1.2,0.2-1.2,0.8c0,0.7,0.1,0.8,1.3,1.1c2.6,0.7,2.8,1,2.8,2.9C122.5,34,121.9,35.1,119.2,35.1z"/>
			<path class="st1" d="M126.9,25.8v6.4c0,0.5,0.2,0.7,0.7,0.7c0.6,0,1.6-0.3,2.4-0.8v-6.4h2.3v9.2h-1.8l-0.2-0.8     c-1.1,0.6-2.6,1-3.7,1c-1.5,0-2.1-1.1-2.1-2.7v-6.6H126.9z"/>
			<path class="st1" d="M139.7,27.7c-0.9,0.4-1.6,0.8-2.4,1.3v5.9H135v-9.2h1.9l0.1,1c0.5-0.3,1.6-1,2.4-1.2L139.7,27.7z"/>
			<path class="st1" d="M148,34.9h-1.9l-0.2-0.6c-0.8,0.5-1.8,0.8-2.7,0.8c-1.7,0-2.4-1.1-2.4-2.7c0-1.9,0.8-2.6,2.7-2.6h2.2v-1     c0-1-0.3-1.4-1.7-1.4c-0.8,0-1.7,0.1-2.5,0.3l-0.3-1.7c0.9-0.3,2.1-0.4,3.1-0.4c2.9,0,3.7,1,3.7,3.3V34.9z M145.7,31.5H144     c-0.8,0-1,0.2-1,0.9c0,0.6,0.2,0.9,0.9,0.9c0.7,0,1.3-0.2,1.7-0.5V31.5z"/>
			<path class="st1" d="M155.8,34.9v-6.4c0-0.5-0.2-0.7-0.7-0.7c-0.6,0-1.6,0.3-2.4,0.8v6.3h-2.3v-9.2h1.7l0.2,0.8     c1.1-0.6,2.6-1,3.7-1c1.5,0,2.1,1.1,2.1,2.7v6.6H155.8z"/>
			<path class="st1" d="M160.2,31.6v-2.5c0-2.5,1.1-3.5,3.9-3.5c0.6,0,1.6,0.1,2.2,0.3l-0.3,1.9c-0.6-0.2-1.4-0.2-1.9-0.2     c-1.3,0-1.7,0.4-1.7,1.5v2.5c0,1.1,0.4,1.5,1.7,1.5c0.6,0,1.2-0.1,1.9-0.2l0.3,1.9c-0.6,0.2-1.5,0.3-2.2,0.3     C161.3,35.1,160.2,34.1,160.2,31.6z"/>
			<path class="st1" d="M172.1,33.3c0.9,0,1.8-0.1,2.8-0.4l0.4,1.7c-1,0.4-2.3,0.6-3.4,0.6c-2.9,0-3.9-1.3-3.9-3.5v-2.4     c0-1.9,0.9-3.6,3.8-3.6c2.9,0,3.6,1.7,3.6,3.7v2h-5.1v0.5C170.3,32.8,170.7,33.3,172.1,33.3z M170.3,29.4h2.9V29     c0-0.9-0.3-1.5-1.4-1.5c-1.1,0-1.5,0.6-1.5,1.5V29.4z"/>
		</g>
		<g>
			<path class="st1" d="M104.4,51.3c-1,0-2.4-0.2-3.3-0.6l0.3-1.8c0.8,0.2,1.9,0.4,2.9,0.4c1.1,0,1.2-0.2,1.2-1     c0-0.6-0.1-0.9-1.7-1.3c-2.3-0.6-2.6-1.2-2.6-3c0-1.9,0.8-2.8,3.6-2.8c0.9,0,2,0.1,2.9,0.3l-0.2,1.9c-0.7-0.1-1.9-0.3-2.6-0.3     c-1,0-1.2,0.2-1.2,0.8c0,0.8,0.1,0.8,1.4,1.2c2.7,0.7,2.9,1.1,2.9,3C107.8,50.2,107.3,51.3,104.4,51.3z"/>
			<path class="st1" d="M113.9,51.3c-3.3,0-4.2-1.8-4.2-3.8v-2.4c0-2,0.9-3.8,4.2-3.8c3.3,0,4.2,1.8,4.2,3.8v2.4     C118.1,49.5,117.2,51.3,113.9,51.3z M113.9,43.4c-1.3,0-1.8,0.6-1.8,1.7v2.6c0,1.1,0.5,1.7,1.8,1.7c1.3,0,1.8-0.6,1.8-1.7v-2.6     C115.7,44,115.2,43.4,113.9,43.4z"/>
			<path class="st1" d="M120.4,51.1V37.7l2.4-0.3v13.8H120.4z"/>
			<path class="st1" d="M127.9,41.6v6.7c0,0.5,0.2,0.8,0.8,0.8c0.6,0,1.6-0.4,2.5-0.8v-6.6h2.4v9.6h-1.8l-0.2-0.8     c-1.2,0.6-2.7,1-3.8,1c-1.6,0-2.2-1.1-2.2-2.8v-6.9H127.9z"/>
			<path class="st1" d="M141.4,51c-0.5,0.2-1.5,0.4-2.1,0.4c-1.8,0-2.6-0.8-2.6-2.5v-5.3h-1.4v-1.9h1.4v-2.4l2.4-0.3v2.7h2.5     l-0.2,1.9h-2.3v5c0,0.5,0.2,0.8,0.9,0.8c0.4,0,0.8-0.1,1.2-0.2L141.4,51z"/>
			<path class="st1" d="M143.3,40.2v-2.8h2.4v2.8H143.3z M143.3,51.1v-9.6h2.4v9.6H143.3z"/>
			<path class="st1" d="M152.2,51.3c-3.3,0-4.2-1.8-4.2-3.8v-2.4c0-2,0.9-3.8,4.2-3.8s4.2,1.8,4.2,3.8v2.4     C156.4,49.5,155.5,51.3,152.2,51.3z M152.2,43.4c-1.3,0-1.8,0.6-1.8,1.7v2.6c0,1.1,0.5,1.7,1.8,1.7c1.3,0,1.8-0.6,1.8-1.7v-2.6     C154,44,153.5,43.4,152.2,43.4z"/>
			<path class="st1" d="M164.3,51.1v-6.7c0-0.5-0.2-0.8-0.8-0.8c-0.6,0-1.6,0.4-2.5,0.8v6.6h-2.4v-9.6h1.8l0.2,0.8     c1.2-0.6,2.7-1,3.8-1c1.6,0,2.2,1.1,2.2,2.8v6.9H164.3z"/>
			<path class="st1" d="M172.4,51.3c-1,0-2.4-0.2-3.3-0.6l0.3-1.8c0.8,0.2,1.9,0.4,2.9,0.4c1.1,0,1.2-0.2,1.2-1     c0-0.6-0.1-0.9-1.7-1.3c-2.3-0.6-2.6-1.2-2.6-3c0-1.9,0.8-2.8,3.6-2.8c0.9,0,2,0.1,2.9,0.3l-0.2,1.9c-0.7-0.1-1.9-0.3-2.6-0.3     c-1,0-1.2,0.2-1.2,0.8c0,0.8,0.1,0.8,1.4,1.2c2.7,0.7,2.9,1.1,2.9,3C175.8,50.2,175.3,51.3,172.4,51.3z"/>
		</g>
	</g>
</g>
</svg>
