<?xml version="1.0" encoding="UTF-8"?>
<svg id="Ebene_1" data-name="Ebene 1" xmlns="http://www.w3.org/2000/svg" viewBox="0 0 165 98.999997267112121">
  <defs>
    <style>
      .cls-1 {
        fill: #024589;
      }

      .cls-2 {
        fill: #fff;
      }
    </style>
  </defs>
  <g id="Schutzzone">
    <rect class="cls-2" width="165" height="98.999997267112121"/>
  </g>
  <g id="Markenzeichen">
    <path class="cls-1" d="m46.678947410699948,80.118260563005606h-.690180678695469V19.038467845127343h.690180678695469v61.079792717878263h0Zm59.726623598556216-61.079801258155385v61.079794425936598h.689671678257582V19.038461012905827h-.689671678257582v-.000001708055606ZM23.715597698808779,41.677229003695174l3.299972807761151-9.276044445706248h-1.286314132501502l-2.676373827062889,8.041749132949917h-.025745515351446l-2.650619771436141-8.041749132949917h-1.338057955367731l3.27396766802849,9.276044445706248h1.403170725930067Zm4.544960545788854-9.276044445706248v9.276044445706248h6.443679065504512v-1.039457461227357h-5.209636544910609v-3.208909555229184h4.820008667396905v-1.039249078498869h-4.820008667396905v-2.949121198375906h5.170798786797604v-1.039296904044022h-6.404841307391507v-.000010248330909Zm8.325159892596275,0v9.276044445706248h1.23429531275724v-3.962411254629842h3.01407170370021c1.195204762479079,0,1.412554780950813.766944093470556,1.546254506262812,1.675738751452627.138615508047224.94469456122988.159402539283292,1.843046169994523.275253088226236,2.286672503177215l1.221471234653109-.0046664066831c-.125487396127028-.793962109911263-.209192347050703-1.671277311387712-.327775784241567-2.554826914179102-.121531540386968-.905812393681117-.311655159688598-1.70169777369756-1.390042614008962-1.909670569368245v-.026013680011602c1.117232044654884-.311907951851936,1.611153769932571-1.234042520593903,1.611153769932571-2.35132239079303,0-1.481358658705176-1.078643662594004-2.429544484671169-2.819486644334575-2.429544484671169h-4.365194572947075Zm3.806718611142969,4.274121072084199h-2.572423298385729v-3.234824168040177h3.06603757373523c1.156367004365165,0,1.649981279714666.675583639339493,1.649981279714666,1.584832639993692.000003416110303,1.351221936446564-.987272960132941,1.649991528046485-2.143595555064167,1.649991528046485h0Zm76.394782311786003,1.656933064195982v-5.931054136280181h-1.233830721756021v5.931054136280181c0,1.63685316779447-.857553003330395,2.533281506453932-2.416672581020975,2.533281506453932-1.636911241670532,0-2.572160257892392-.896424922550068-2.572160257892392-2.533281506453932v-5.931054136280181h-1.234336306080877v5.931054136280181c0,2.468382242785083,1.416059710129048,3.572783377116139,3.806510228412662,3.572783377116139,2.312672518748514.000006832220606,3.650489638337604-1.23433972219118,3.650489638337604-3.572783377116139h0Zm2.350311222142409-5.931054136280181v9.276044445706248h1.169443874632634v-7.44409380199977h.026263056062817l4.845711481368198,7.44409380199977h1.351167278682624v-9.276044445706248h-1.169457539073846v7.522377385863365h-.026208398299786l-4.884354521194837-7.522377385863365h-1.312565232177803Zm16.589424202804366,8.119732099105931l.197533162565378,1.156312346600316h.907072938385681v-4.884798615535146h-4.066906652902617v1.039252494609173h2.962300551951557c.07772334177389,1.688819037830399-1.065512134560777,3.027155406187376-2.975172455599022,3.027155406187376-2.065626253350274,0-3.183117922388192-1.767106037803387-3.183117922388192-3.702728797196869,0-1.987653535524259.93578192942914-3.936459064605515,3.183117922388192-3.936459064605515,1.377416670302409,0,2.507260994223543.636486256843455,2.754382414046631,2.039663814995038h1.234295312755421c-.351053159893127-2.169612651186071-1.962145439840242-3.07891630960421-3.988677726802052-3.07891630960421-2.936051160329953,0-4.417454228469069,2.338184030541925-4.417454228469069,5.040805541171721,0,2.416163580585817,1.650240904098609,4.676887309849008,4.417454228469069,4.676887309849008,1.091255941857526-.000010248330909,2.260713480931372-.402776486096627,2.975172455599022-1.377174126470891h0Zm8.675458092113331-5.404481228661098h1.168992948070809c-.077723341772071-2.039872197722616-1.520046107965754-2.93604774421965-3.416834525356535-2.93604774421965-1.688815621719186,0-3.364308413227263.831276282828185-3.364308413227263,2.715240622114834,0,1.701957398081504,1.493769387459906,2.130470859254274,2.97468053571356,2.455254130863977,1.481403068139116.324837929374553,2.961794967626702.545634803149369,2.961794967626702,1.818812283454463,0,1.338076743973943-1.233844386197234,1.689126487757676-2.35132239079212,1.689126487757676-1.402668557715515,0-2.701856301922817-.675833015393437-2.701856301922817-2.234706633142196h-1.169498532395664c0,2.260460688768944,1.754227301933497,3.273959127751368,3.832725458933055,3.273959127751368,1.688870279482217,0,3.624752663261461-.792438524713361,3.624752663261461-2.767216740480762,0-1.818812283454463-1.481403068139116-2.338443654924959-2.962300551951557-2.676105662402733-1.493728394138088-.337911383531718-2.975145126720236-.506742387271515-2.975145126720236-1.650234071878913,0-1.208083498348969,1.039768327267666-1.584887297758542,2.079017405767445-1.584887297758542,1.272924688140847.000010248330909,2.156727083094665.571399107107027,2.299301862993161,1.896805497940477h0Zm-91.616686315857805,6.835841696868556c1.024143038707734,0,2.431273036488165-.186874898396127,3.321975974268753-1.077372869557621.530071004576712-.530019762923075.798888140979216-1.239265753258223.798888140979216-2.107705900148176,0-1.754937852879266-1.46872929888923-2.393142413208807-2.747898636677746-2.753371245395101-.287926857476123-.080210270078169-.572348785774921-.148754523447678-.847396907381153-.215119298439276-.956811504499456-.230228754339805-1.78343162897545-.429022461608838-1.78343162897545-.92882672883934,0-.169842172391327.056731343918727-.312669744451341.168626037121612-.424311645491798.259689289653579-.259942081816007.730282397623341-.287926857475213.920409433036184-.287926857475213.307948680002482,0,.87264879479153.049987942165899,1.192465042010554.384961470830604.158944780502679.166600283707339.233730267408646.384712094777569.22161332413998.648350407949692l-.004208647902487.083909917543679h2.581298352970407l-.000502168215462-.080972062676665c-.006186575770698-.987740967245372-.422842718057836-1.797974010564758-1.205145643481956-2.343359437661093-.669906064005772-.467153084889105-1.589803080495585-.724102654074159-2.590672159662063-.724102654074159-1.921582546019636,0-3.860457442428924.896633305279465-3.860457442428924,2.899382632263041,0,1.731206134556487,1.401906765117019,2.363186541900177,2.773393067921461,2.753371245395101.240873354066935.06783370242465.480530572862335.128220284374947.712487879020046.186885146727036,1.015476366851544.256242434351407,1.892326977324956.477541476341685,1.892326977324956,1.087064374508373,0,.639933112146537-.723593653637181.867931146453884-1.400690629845485.867931146453884-1.112514396316328,0-1.628948288536776-.421114166240841-1.673712998038354-1.365559351417687l-.003750889120056-.076254414339019h-2.573595024222413l.000707134834556.080463062240597c.011669432818962,2.12435602179994,1.547016298862218,3.392563061603141,4.107271412323826,3.392563061603141h0Zm8.576435302556092-.194837851528064v-9.436205361479551h-2.576580704632761v9.436205361479551h2.576580704632761Zm6.817797802210407.194837851528064c2.616166590904868,0,4.393411644109619-1.518771898819068,4.527364161583137-3.869072872629658l.004919198846437-.084921086196118h-2.695878108876968l-.006435951824642.073261901707156c-.095056685485361,1.058826806686739-.764245366325667,1.641574232243329-1.884668058009993,1.641574232243329-.596131745752245,0-1.085537373199259-.187394147164014-1.454941877678721-.55648095338347-.470350564139153-.470394973573093-.729271228971811-1.222233027252514-.729271228971811-2.117134364604681,0-.894955995116106.258920664832658-1.647043424848562.729271228971811-2.117134364603771.369397672257946-.369606054986434.858803299705869-.556989953819539,1.454941877678721-.556989953819539,1.071900260841176,0,1.759139668560238.495844995381958,1.885125816791515,1.360336118754276l.009940881001057.068803877752543h2.689688116996876l-.002685062702767-.082690366163661c-.068342702861628-2.244083855943245-2.355531038696427-3.585354663056023-4.527364161583137-3.585354663056023-2.860555122480037,0-4.93682597555653,2.066084012130887-4.93682597555653,4.913043015577387,0,1.376914502087857.495090035004068,2.630579160302659,1.39425126191145,3.529689145556404.904586010079584.904821721691405,2.129958442706993,1.383070332865827,3.542567881423565,1.383070332865827h0Zm9.15401415321503-.194837851528064v-3.819344554848612h3.704197724629921v3.819344554848612h2.636007359585165v-9.436205361479551h-2.636007359585165v3.377696149534131h-3.704197724629921v-3.377696149534131h-2.636266983969108v9.436205361479551h2.636266983969108Zm16.527271491827378,0v-2.238915281044683h-5.105656979296327v-1.606641088213109h4.546685681494637v-2.030997143137938h-4.546685681494637v-1.463564140100061h4.975448518720441v-2.096091125094972h-7.552541639899573v9.436208777590764h7.682750100475459Zm4.756578331160199,0h-2.576075120308815v-9.436205361479551h4.809056617743408c1.112060053646928,0,2.049297246068818.324076136775147,2.63752411256246.912501137667277.457977412595937.45776902986745.690177262586076,1.056589254433675.690177262586076,1.778963356689928,0,1.054870950946679-.514910307021637,1.925029401321808-1.349179102480775,2.324348783786263.708029855064524.256949569184144,1.137257283291547,1.026623134792317,1.244741778084062,2.243376721107779.011355150671079.166350907654305.196562987235666,2.177018778337697.196562987235666,2.177018778337697h-2.476591155858841s-.1361798213984-1.480900899923654-.143585948550026-1.555631729063862c-.064386847123387-.922189226507726-.215884507149894-1.822064420470269-1.280891057383997-1.822064420470269h-1.751740373629218v3.377692733424738h0Zm0-5.408888010960254h1.946827601210316c.678323359810747,0,1.037274566740962-.349580816349771,1.037274566740962-1.011267718949966,0-.253044955100449-.07873451042542-.460006582120513-.233217850862275-.61494768133889-.196562987235666-.196566403346878-.519371747086552-.305010825136378-.908029449274181-.305010825136378h-1.842848035596035v1.931226225425235h-.000006832218787Zm-36.193852707427141,9.101983377082433l3.530399696500353,9.436205361479551h-2.634982526492422l-.539198851325636-1.662610639530612h-2.903645937929468l-.50152598682871,1.662610639530612h-2.452818444211516l3.127384082681601-9.436205361479551h2.374387967605799Zm-.266121825367009,5.820126202294887l-.915749858572781-2.99151512732351-.838730235524963,2.99151512732351h1.754480094097744Zm41.916226913202991,1.430393708990778c.01135515066926.166350907654305.196562987233847,2.177063187771637.196562987233847,2.177063187771637h-2.476591155858841s-.136179821396581-1.48069593330456-.143585948550026-1.55568638682962c-.064386847121568-.921929602122873-.215884507148075-1.82206442046936-1.280891057383997-1.82206442046936h-1.751740373631037v3.377740558968071h-2.576075120305177v-9.436239522582582h4.809056617741589c1.112060053646928,0,2.049297246068818.324076136776057,2.637524112564279.912501137668187.457977412594119.458028654250484.690184094804863,1.056589254432765.690184094804863,1.778963356689928,0,1.054870950945769-.514910307021637,1.925029401321808-1.349179102482594,2.324348783785354.708016190625131.25694615307475,1.137243618852153,1.026623134793226,1.244734945867094,2.243373304998386h0Zm-2.472143380236957-4.242884159409186c0-.253294331153484-.07873451042542-.460259374282941-.233217850862275-.614940849119193-.196562987237485-.197075403781128-.519371747086552-.305263617298806-.908029449272362-.305263617298806h-1.842848035596035v1.931219393204628h1.946827601210316c.678309695369535-.000010248330909,1.037267734520356-.349580816349771,1.037267734520356-1.011014926786629h0Zm-47.756672139621514-3.000947007889408l-2.69166946097539,3.407658853063367v-3.408878404444295h-2.335505800058854v9.436208777590764h2.335505800058854v-2.908561720666512l.793658076094289-.928119594005693,2.076274269186797,3.836681314672205h2.91277036856718l-3.400959860745388-5.694584148403919,3.499726442028077-3.741614380855935-3.189799834155565.001209303050018h0Zm18.681822512655344,9.434989226209836h2.307008607853277v-9.436205361479551h-2.281503928278653l-1.861151554637217,3.644326975337208-1.892074185162528-3.644326975337208h-2.257276873960109v9.436205361479551h2.297826103340412v-5.0608376120299l1.838639387693547,2.911250199480492h.030724496127732l1.818053906965361-2.849398106207445-.000245959941822,4.998985518756854h0Zm10.181600631115543-9.436205361479551l-1.860905594694486,3.644326975337208-1.892074185162528-3.644326975337208h-2.257017249576165v9.436205361479551h2.297627968941015v-5.0608376120299l1.838837522091126,2.911250199480492h.030471703965304l1.817801114802933-2.849398106207445v4.998985518756854h2.306748983468424v-9.436205361479551h-2.281490263835622Zm6.702907180265356,7.197290080434868v-1.606432705483712h4.546685681496456v-2.031202109756123h-4.546685681496456v-1.46360854953582h4.97544851872226v-2.096046715659213h-7.552541639899573v9.436205361479551h7.682736436032428v-2.238915281044683h-5.105643314855115Zm-33.916096252157331,10.172927127037838c.907072938385681.33868000835173,1.484142788606732,1.189277811092325,1.484142788606732,2.215648153724032,0,.86499329158687-.248074514599466,1.551727114978348-.737732934209816,2.041897951135979-.612207960870364.61194833648733-1.606183329430678.922383944795001-2.954142880532345.922383944795001h-4.535986424004477v-9.436458153641979s4.419428740228796,0,4.417905155030894,0c1.308872416933809-.02128919945153,2.260460688768944.251535034342851,2.828863867133805.810745459863938.401037685949632.394601734125899.604292833281761.931313657145438.604292833281761,1.595036561491725.000003416111213.762974573288375-.412693454326472,1.440279932226986-1.107342405306554,1.850746082631304h0Zm-2.376314653821282-.606017968988454c.336695248260185,0,.907072938384772-.168831003740706.907072938384772-.803086540548975,0-.248282897329773-.069312878188612-.443376957133296-.205994867801564-.579754912925637-.195042818147158-.195346851965951-.488906875341854-.236415330113232-.701078070583208-.236415330113232h-1.790578131743132v1.619256783587844h1.790578131743132Zm1.283627361743129,2.730558460745669c0-.303999656485757-.083704950925494-.541631121866885-.249294065980393-.707018686412994-.201536843846952-.201994602630293-.527843700655467-.303999656485757-.969686824257224-.303999656485757h-1.855224603248644v1.970057151318542h1.855224603248644c.820378890939537,0,1.218980890237617-.313373463173775,1.218980890237617-.959038808419791h0Zm8.780653792995508-6.381068595744182l3.530454354266112,9.436458153641979h-2.634777559873328l-.538946059163209-1.663112807747893h-2.903604944606741l-.501826604533562,1.663112807747893h-2.452821860324548l3.12718253217372-9.436458153641979h2.374340142061556Zm-.265875865424277,5.820122786183674l-.915743026352175-2.991508295102904-.838730235524963,2.991508295102904h1.754473261877138Zm9.110663713380745-5.820122786183674l-1.794277779208642,3.665370214846007-1.795090813462593-3.665370214846007h-2.930564887172295l3.437057898390776,5.922127840040957v3.514330313601022h2.576894986780644v-3.514330313601022l3.436600139609254-5.922127840040957h-2.930619544937144Zm6.378875452924149,7.197033872161228v-1.606179913320375h4.547143440277068v-2.030945901484301h-4.547143440277068v-1.463557307877636h4.975919941943175v-2.096350749478916h-7.552288847737145v9.436458153641979h7.682490476090607v-2.239424281480751h-5.106121570296636Zm23.430963971673009-7.197033872161228h-.080715854404843v5.536913577047926l-3.097469204696608-5.496050065520649-.022764959107008-.040863511527277h-2.608268543868689v9.436458153641979h2.433507172632744v-5.599264422424312l3.097926963477221,5.558209608720063.022805952430645.041068478145462h2.60826854386687v-9.436471818083191h-2.353290070330331Zm-8.184317080627807,7.257471695765162c.011409808435928.166344075434608.196562987235666,2.177011946118.196562987235666,2.177011946118h-2.477062579082485s-.136179821396581-1.48089748381426-.143579116327601-1.555682970718408c-.063874430577926-.921878360470146-.215372090602614-1.82200976270542-1.280891057385816-1.82200976270542h-1.751227957081937v3.377692733423828h-2.577086288958526v-9.436205361479551h4.809056617743408c1.113071222296639,0,2.049802830393674.324024895121511,2.638029696887315.912497721556974.457977412595937.45772462043351.690689679131538,1.056596086653371.690689679131538,1.778959940578716,0,1.054812877073346-.515422723568918,1.925237784051205-1.349691519028056,2.324348783788082.708487613846955.256952985293537,1.138275284165502,1.026834933631108,1.245199536866494,2.243386969437779h0Zm-2.473099891123638-4.242945649393732c0-.253243089498937-.078228926096926-.460204716519002-.233217850860456-.615193641282531-.196576651678697-.196562987235666-.518866162759878-.304710207428798-.907031945062045-.304710207428798h-1.842848035596035v1.930710392767651h1.946779775666073c.677879265469528.000006832222425,1.036318055852462-.349570568017953,1.036318055852462-1.010806544056322h0Z"/>
  </g>
</svg>